<svg version="1.1" id="Capa_1" xmlns="http://www.w3.org/2000/svg" xmlns:xlink="http://www.w3.org/1999/xlink" viewBox="-5.3 -5.3 63.60 63.60" xml:space="preserve" fill="#000000">
<g id="SVGRepo_bgCarrier" stroke-width="0"></g>
<g id="SVGRepo_tracerCarrier" stroke-linecap="round" stroke-linejoin="round"></g>
<g id="SVGRepo_iconCarrier">
<rect x="27" y="28" style="fill:#000000;" width="2" height="18"></rect>
<rect x="37.5" y="2.893" transform="matrix(0.7071 0.7071 -0.7071 0.7071 20.8223 -23.2696)" style="fill:#000000;" width="2" height="21.213"></rect>
<rect x="15" y="21.858" transform="matrix(0.7071 0.7071 -0.7071 0.7071 30.1421 -0.7696)" style="fill:#000000;" width="2" height="28.284"></rect>
<rect x="10.722" y="13.5" transform="matrix(0.7071 0.7071 -0.7071 0.7071 15.6716 -8.8345)" style="fill:#000000;" width="15.556" height="2"></rect>
<rect x="26.893" y="32.5" transform="matrix(0.7071 0.7071 -0.7071 0.7071 34.6716 -16.7046)" style="fill:#000000;" width="21.213" height="2"></rect>
<circle style="fill:#000000;" cx="48" cy="5" r="5"></circle>
<circle style="fill:#000000;" cx="28" cy="48" r="5"></circle>
<circle style="fill:#000000;" cx="5" cy="46" r="5"></circle>
<circle style="fill:#000000;" cx="12" cy="8" r="3"></circle>
<circle style="fill:#000000;" cx="44" cy="40" r="3"></circle>
<circle style="fill:#000000;" cx="28" cy="24" r="7"></circle>
</g>
</svg>
